<svg version="1" xmlns="http://www.w3.org/2000/svg" width="454.667" height="454.667" viewBox="0 0 341.000000 341.000000"><path d="M154.4 1C86.6 7.6 28.6 53.9 8.2 118c-6 18.9-7.7 30.3-7.6 53 0 18.3.3 21.9 2.7 33.1 9.4 44.4 34.7 82.4 71.2 107.1 25 16.8 52.6 26.4 82.7 28.7 86.4 6.5 162.8-51.7 180-137.1 1.9-9.6 2.3-14.4 2.3-32.3 0-23.2-1.6-34.3-7.5-52.8-4.1-12.7-15.6-35.3-23.7-46.7-13.4-18.7-33.8-36.9-54.4-48.6C224.5 5.7 187.7-2.2 154.4 1zm4.3 75c1.7 1 3.6 2.7 4.1 3.7.6 1 7.2 32.7 14.8 70.6 7.5 37.8 13.9 68.6 14.1 68.4.2-.3 6.1-12.8 13.2-27.8 10.8-23.3 13.3-27.7 16.1-29.7 3.4-2.3 3.5-2.3 35.2-2l31.8.3 3.2 3.3c2.7 2.7 3.3 4 3.3 7.7s-.6 5-3.3 7.7l-3.2 3.3-27.2.5-27.3.5-18.5 39.6c-10.2 21.8-19.1 40.4-19.9 41.3-4.4 5.2-14.7 3.7-17.6-2.6-.9-1.8-7.6-33.6-15-70.7s-13.6-67.6-13.8-67.7c-.2-.2-6.2 12.1-13.3 27.3-11 23.7-13.4 28.1-16.3 30-3.3 2.3-3.8 2.3-33.5 2.3-34.2 0-35.5-.3-39-7.3-1.6-3.4-1.7-4.2-.4-7.5.8-2 2.9-4.7 4.7-5.9 3.3-2.2 4-2.3 29.5-2.3h26.1l11.5-24.8c25-54 26.6-57.1 30.2-58.7 4.5-1.9 6.7-1.8 10.5.5z"/></svg>