<?xml version="1.0" standalone="no"?>
<!DOCTYPE svg PUBLIC "-//W3C//DTD SVG 20010904//EN"
 "http://www.w3.org/TR/2001/REC-SVG-20010904/DTD/svg10.dtd">
<svg version="1.0" xmlns="http://www.w3.org/2000/svg"
 width="1500.000000pt" height="1500.000000pt" viewBox="0 0 1500.000000 1500.000000"
 preserveAspectRatio="xMidYMid meet">
<metadata>
Created by potrace 1.11, written by Peter Selinger 2001-2013
</metadata>
<g transform="translate(0.000000,1500.000000) scale(0.100000,-0.100000)"
fill="#000000" stroke="none">
<path d="M7159 14996 c-2 -2 -58 -6 -124 -10 -66 -4 -136 -8 -155 -10 -19 -2
-69 -7 -110 -10 -41 -4 -111 -11 -155 -17 -44 -5 -96 -12 -115 -14 -19 -3 -53
-7 -75 -10 -22 -2 -49 -6 -60 -9 -11 -2 -40 -7 -65 -11 -25 -3 -58 -9 -75 -11
-169 -27 -485 -97 -745 -167 -267 -72 -743 -242 -990 -353 -30 -14 -86 -39
-125 -57 -119 -53 -443 -221 -585 -302 -74 -43 -145 -83 -157 -89 -13 -6 -23
-14 -23 -18 0 -5 -5 -8 -10 -8 -13 0 -289 -180 -434 -282 -94 -67 -158 -115
-311 -235 -57 -45 -227 -186 -251 -208 -6 -5 -42 -37 -79 -70 -214 -187 -506
-483 -700 -710 -33 -39 -62 -72 -65 -75 -3 -3 -48 -59 -101 -125 -430 -538
-771 -1106 -1046 -1740 -71 -162 -228 -584 -248 -665 -1 -3 -5 -12 -8 -20 -7
-17 -77 -261 -106 -370 -18 -69 -74 -307 -85 -362 -33 -168 -79 -438 -91 -533
-3 -27 -8 -63 -10 -80 -9 -63 -15 -123 -21 -195 -3 -41 -7 -86 -10 -100 -12
-72 -19 -313 -19 -625 0 -357 6 -519 29 -736 3 -29 8 -81 11 -114 3 -33 7 -71
10 -85 7 -42 18 -113 20 -140 1 -14 5 -45 9 -70 4 -25 9 -57 12 -72 9 -61 15
-96 29 -163 8 -38 16 -83 19 -100 3 -16 8 -39 10 -50 36 -170 51 -233 84 -360
200 -756 480 -1410 892 -2080 117 -191 440 -643 543 -761 14 -16 42 -50 63
-75 106 -126 128 -151 181 -210 155 -170 414 -431 533 -537 439 -391 834 -679
1320 -962 278 -163 673 -351 1012 -484 287 -112 720 -248 959 -300 13 -3 76
-17 139 -31 134 -30 207 -45 235 -49 11 -2 34 -6 50 -9 34 -7 60 -12 160 -27
131 -20 153 -23 260 -35 33 -4 71 -8 85 -11 14 -2 56 -6 95 -10 38 -3 86 -7
105 -10 241 -26 972 -26 1275 1 49 4 158 15 195 20 19 2 59 7 89 10 30 4 61 8
70 10 9 1 41 6 71 10 30 4 64 9 75 11 11 2 38 6 60 9 33 4 113 19 230 41 95
18 189 38 235 49 30 8 69 16 85 19 45 8 374 100 500 139 193 61 516 178 610
221 17 8 58 26 92 40 255 106 646 307 918 471 127 77 440 286 555 370 713 528
1295 1132 1782 1850 487 717 842 1506 1057 2350 6 22 11 43 11 47 1 4 6 22 11
40 41 139 127 611 154 853 4 33 9 69 11 80 2 11 7 56 10 100 3 44 7 96 9 115
27 248 27 1037 0 1256 -2 16 -6 63 -10 104 -3 41 -8 86 -10 100 -2 14 -7 50
-10 80 -5 48 -29 220 -40 290 -16 101 -15 93 -50 270 -23 118 -53 248 -75 335
-12 44 -22 87 -24 95 -54 223 -191 634 -303 910 -122 300 -331 728 -440 902
-13 21 -23 40 -23 43 0 10 -202 329 -288 455 -494 723 -1108 1354 -1817 1867
-634 458 -1361 825 -2110 1063 -96 31 -322 97 -358 105 -12 2 -49 12 -82 20
-33 9 -67 17 -75 19 -29 8 -345 75 -375 80 -68 13 -203 35 -240 41 -23 3 -51
7 -64 10 -12 2 -50 7 -84 10 -34 3 -69 8 -77 10 -8 2 -44 7 -80 10 -36 4 -78
8 -95 10 -16 2 -73 6 -125 10 -52 4 -111 9 -130 11 -41 6 -826 15 -831 10z
m-251 -3275 c81 -28 134 -61 197 -125 51 -52 92 -116 114 -177 12 -33 78 -346
96 -454 3 -16 10 -50 15 -75 5 -25 12 -56 14 -70 3 -14 8 -36 11 -50 3 -14 8
-38 10 -55 3 -16 8 -37 10 -45 2 -8 7 -30 10 -49 3 -19 22 -112 41 -205 38
-189 35 -175 59 -301 9 -49 19 -98 21 -107 10 -47 31 -144 39 -188 3 -14 25
-128 51 -255 25 -126 48 -241 50 -255 3 -14 7 -32 9 -40 2 -8 7 -31 10 -50 3
-19 22 -114 41 -210 20 -96 38 -186 40 -200 3 -14 7 -32 9 -40 2 -8 7 -31 10
-50 3 -19 24 -125 46 -235 23 -110 43 -211 45 -225 3 -14 14 -70 25 -125 12
-55 22 -107 24 -115 21 -106 58 -291 61 -310 3 -14 7 -32 9 -40 2 -8 7 -31 10
-50 3 -19 27 -136 52 -260 24 -124 47 -236 49 -250 3 -14 12 -59 20 -100 9
-41 18 -86 20 -100 3 -14 7 -32 9 -40 3 -8 7 -33 11 -55 3 -22 12 -67 19 -100
8 -33 16 -73 19 -90 3 -16 26 -133 52 -260 25 -126 48 -241 50 -255 3 -14 7
-32 9 -40 3 -8 7 -33 10 -55 4 -22 10 -56 15 -75 5 -19 12 -51 15 -70 3 -19
20 -102 36 -185 17 -82 33 -161 35 -175 15 -86 38 -173 42 -160 3 8 25 58 50
110 88 189 671 1437 707 1515 168 362 317 680 348 745 41 83 133 178 213 218
123 62 44 59 1504 58 l1335 -2 60 -23 c291 -115 413 -422 277 -700 -31 -62
-118 -157 -179 -195 -49 -30 -149 -65 -201 -70 -20 -3 -535 -5 -1143 -5
l-1105 -1 -19 -42 c-10 -24 -45 -99 -77 -166 -32 -68 -58 -125 -58 -127 0 -3
-27 -60 -130 -280 -24 -49 -57 -121 -75 -160 -18 -38 -48 -104 -68 -145 -19
-41 -49 -106 -67 -145 -18 -38 -54 -115 -80 -170 -26 -55 -57 -122 -70 -150
-37 -80 -470 -1009 -558 -1195 -22 -47 -52 -112 -67 -145 -42 -91 -88 -189
-142 -305 -28 -58 -85 -181 -128 -275 -117 -251 -162 -312 -285 -379 -90 -49
-158 -65 -260 -61 -239 8 -435 184 -475 425 -3 19 -24 125 -46 235 -23 110
-43 211 -45 225 -3 14 -19 93 -35 175 -17 83 -33 164 -36 180 -2 17 -8 46 -13
65 -5 19 -12 51 -15 70 -3 19 -33 170 -66 335 -34 165 -63 311 -65 325 -3 14
-16 79 -29 145 -13 66 -27 131 -29 145 -9 43 -16 79 -57 285 -23 110 -43 211
-45 225 -3 14 -39 194 -81 400 -41 206 -77 386 -80 400 -2 14 -34 171 -69 350
-36 179 -68 336 -70 350 -3 14 -7 32 -9 40 -2 8 -7 31 -10 50 -3 19 -16 89
-30 155 -13 66 -26 131 -29 145 -3 14 -8 36 -11 50 -3 14 -7 36 -10 50 -2 14
-21 106 -41 205 -19 99 -38 191 -40 205 -3 14 -26 126 -51 250 -25 124 -47
236 -50 250 -2 14 -15 79 -29 145 -13 66 -27 134 -30 150 -15 88 -71 355 -75
360 -3 2 -86 -167 -184 -378 -98 -210 -205 -438 -237 -507 -33 -69 -68 -143
-78 -165 -54 -117 -366 -787 -414 -889 -31 -65 -56 -119 -56 -121 0 -2 -31
-69 -70 -150 -38 -81 -70 -149 -70 -153 0 -3 -12 -24 -27 -46 -44 -66 -128
-143 -191 -175 -127 -64 -45 -61 -1497 -58 -726 1 -1333 6 -1348 10 -222 60
-372 240 -382 460 -4 94 20 202 62 275 39 68 139 163 205 194 119 57 70 55
1286 55 l1123 0 63 134 c35 74 75 159 89 189 13 30 61 132 105 225 43 94 92
197 107 230 15 33 52 111 81 173 30 63 54 115 54 117 0 2 31 68 69 148 62 129
101 213 106 227 1 3 17 39 37 80 41 86 78 167 178 381 40 85 87 187 106 227
19 39 50 107 70 150 20 42 54 115 76 162 22 47 99 211 170 365 72 154 152 325
178 380 26 55 67 143 91 195 58 127 98 189 156 240 54 48 167 106 234 119 68
14 187 6 257 -18z"/>
</g>
</svg>
