<?xml version="1.0" encoding="UTF-8" standalone="no"?>
<!DOCTYPE svg PUBLIC "-//W3C//DTD SVG 1.1//EN" "http://www.w3.org/Graphics/SVG/1.1/DTD/svg11.dtd">
<svg width="100%" height="100%" viewBox="0 0 142 142" version="1.1" xmlns="http://www.w3.org/2000/svg" xmlns:xlink="http://www.w3.org/1999/xlink" xml:space="preserve" xmlns:serif="http://www.serif.com/" style="fill-rule:evenodd;clip-rule:evenodd;stroke-linejoin:round;stroke-miterlimit:1.41421;">
    <g id="AVATAR" transform="matrix(1.65837,0,0,1.65837,-46.6985,-46.6985)">
        <path d="M70.87,28.35C47.544,28.35 28.35,47.544 28.35,70.87C28.35,94.196 47.544,113.39 70.87,113.39C94.196,113.39 113.39,94.196 113.39,70.87C113.39,70.867 113.39,70.863 113.39,70.86C113.39,47.54 94.2,28.35 70.88,28.35C70.877,28.35 70.873,28.35 70.87,28.35ZM99.21,73.7L86.84,73.7L77.69,93.32C77.237,94.333 76.23,94.991 75.12,95L74.78,95C73.568,94.852 72.58,93.937 72.34,92.74L65.53,58.63L59.26,72.07C58.792,73.064 57.788,73.7 56.69,73.7L42.52,73.7C41.028,73.611 39.848,72.36 39.848,70.865C39.848,69.37 41.028,68.119 42.52,68.03L54.89,68.03L64.05,48.41C64.514,47.415 65.517,46.776 66.615,46.776C67.959,46.776 69.126,47.732 69.39,49.05L76.2,83.1L82.47,69.67C82.92,68.674 83.907,68.022 85,68L99.21,68C99.266,67.997 99.322,67.995 99.378,67.995C100.936,67.995 102.218,69.277 102.218,70.835C102.218,72.393 100.936,73.675 99.378,73.675C99.322,73.675 99.266,73.673 99.21,73.67L99.21,73.7Z" style="fill:rgb(250,70,0);fill-rule:nonzero;"/>
    </g>
</svg>
