<svg xmlns="http://www.w3.org/2000/svg" viewBox="0 0 283.46 283.46"><defs><style>.cls-1,.cls-2{fill:#fa4600;}.cls-2{font-size:60px;font-family:Futura-Medium, Futura;letter-spacing:-0.05em;}</style></defs><title>A1</title><g id="Aplicacions"><path id="ICONA" class="cls-1" d="M219.91,0H63.56A28.21,28.21,0,0,0,35.43,28.12V184.47A28.21,28.21,0,0,0,63.56,212.6H219.91A28.21,28.21,0,0,0,248,184.47V28.12A28.2,28.2,0,0,0,219.91,0ZM184.25,110.55H165.7L152,140a4.24,4.24,0,0,1-3.85,2.45,4.36,4.36,0,0,1-.51,0,4.26,4.26,0,0,1-3.66-3.39L133.73,88l-9.4,20.15a4.27,4.27,0,0,1-3.86,2.45H99.21a4.25,4.25,0,0,1,0-8.5h18.55L131.5,72.61a4.25,4.25,0,0,1,8,1l10.22,51.07,9.4-20.15a4.24,4.24,0,0,1,3.85-2.45h21.26a4.25,4.25,0,0,1,0,8.5Zm26,17.83c-5.49,0-4.45-11.57-4.7-22.08,0-1.68-.09-3.34-.14-5a63.84,63.84,0,1,0-77.23,67.32c2.32-3.43,7.53-2.79,13.59-2.79,8.22,0,14.88-1.2,14.88,8.47,0,8-7.92,8.47-14.88,8.48-6.48,0-12.83-.4-14.47-5.77a72.44,72.44,0,0,1-53.89-47.54,3.49,3.49,0,0,1-.75.1c-12.14,0-22-10.44-22-23.32S60.48,83,72.62,83a4.25,4.25,0,0,1,.75.1,72.2,72.2,0,0,1,137.12,1.15c11.37.17,20.53,10,20.53,22.07S221.7,128.38,210.21,128.38Z"/><text class="cls-2" transform="translate(38.1 266.8)">podigee</text></g></svg>