<svg xmlns="http://www.w3.org/2000/svg" xmlns:xlink="http://www.w3.org/1999/xlink" viewBox="0 0 1250 1750"><defs><style>.cls-1{fill:url(#New_Gradient_Swatch_3);}.cls-2{fill:#fff;}.cls-3{fill:#fa4600;}</style><radialGradient id="New_Gradient_Swatch_3" cx="625" cy="625" r="500" gradientUnits="userSpaceOnUse"><stop offset="0" stop-color="#ff4600" stop-opacity="0.85"/><stop offset="0.44" stop-color="#ff4600" stop-opacity="0.86"/><stop offset="0.7" stop-color="#fd4600" stop-opacity="0.9"/><stop offset="0.91" stop-color="#fb4600" stop-opacity="0.96"/><stop offset="1" stop-color="#fa4600"/></radialGradient></defs><title>podigee(N)V</title><g id="NEGATIVE"><rect id="ICON" class="cls-1" x="125" y="125" width="1000" height="1000" rx="132.29" ry="132.29"/><path class="cls-2" d="M930,480.33A332.71,332.71,0,0,0,640.38,282a338.24,338.24,0,0,0-43.3.8A333.19,333.19,0,0,0,555.15,289a331.55,331.55,0,0,0-113.24,47.42,335,335,0,0,0-109,118q-4.94,9-9.3,18.19-1.1,2.31-2.16,4.64l-.93,2.08c-.21.45-.31.89-.72,1.12a7.1,7.1,0,0,1-1.23.41c-3,1-5.89,2.09-8.76,3.31A125,125,0,0,0,277.86,504a141.64,141.64,0,0,0-25.74,29.06,157.45,157.45,0,0,0-17.92,36.27,169,169,0,0,0-8.66,41.9,174.57,174.57,0,0,0,2,43.73,165.28,165.28,0,0,0,12.13,39.6,152.23,152.23,0,0,0,20.7,33.58,135.36,135.36,0,0,0,27.72,25.77,119.93,119.93,0,0,0,33.23,16.18c3,.91,9.72,2.44,10,2.8s1.49,2.73,1.95,3.56q1.32,2.37,2.67,4.72,5.4,9.36,11.39,18.36A333.37,333.37,0,0,0,514.94,929.71q10.41,3.64,21,6.58c1.78.49,3.57,1,5.35,1.43l1.35.35c.23.06,1.17.14,1.34.33s.15.84.2,1.06c.08.44.17.87.27,1.3a40.39,40.39,0,0,0,2.86,8.42c4.79,10.16,14.09,16.6,24.49,20.16,12.2,4.17,25.38,5.11,38.18,5.49s25.77.38,38.58-.52c11.29-.79,22.87-2.34,33.38-6.74,9.31-3.89,17.38-10.39,21.46-19.8a45,45,0,0,0,3.38-17,68.66,68.66,0,0,0-2.63-21.53,33.13,33.13,0,0,0-8-13.83,30.14,30.14,0,0,0-2.76-2.41,7,7,0,0,0-1.49-1.06c-.73-.28-2.26.4-3.06.58q-6.52,1.56-13.13,2.79A277.17,277.17,0,0,1,567.85,894,274.88,274.88,0,0,1,428.12,817a275,275,0,0,1-58.29-89.28,272.7,272.7,0,0,1-14.6-49.1,274.75,274.75,0,0,1,69.83-242.37,281.14,281.14,0,0,1,40.55-35.33A273.61,273.61,0,0,1,617,350.13,275.21,275.21,0,0,1,894,682.3c-3.53,16.64-16.57,58.28-16.59,60.15,0,3.38.05,6.77.35,10.14.45,5.15,1.35,10.61,4.06,15.11a14.65,14.65,0,0,0,10.18,7,38.68,38.68,0,0,0,8.4.21c3.08-.12,6.16-.38,9.22-.76A114.51,114.51,0,0,0,944.41,764a126.11,126.11,0,0,0,30.3-20.24,143.3,143.3,0,0,0,24.4-28.68,158.23,158.23,0,0,0,17-35.46,169.68,169.68,0,0,0,8.28-40.56,175.18,175.18,0,0,0-2-43.63,165.49,165.49,0,0,0-12.25-40.1,151.92,151.92,0,0,0-21-33.91A135,135,0,0,0,961,495.52,120.26,120.26,0,0,0,930,480.33Z"/><path class="cls-2" d="M652.51,782.69a19.65,19.65,0,0,1-2.53-.16,21,21,0,0,1-18.09-16.72L589.46,554.92l-37.1,79a21,21,0,0,1-19,12.09H441.67a21,21,0,0,1,0-42H520L578.47,479.4a21,21,0,0,1,39.64,4.79l42.43,210.89,37.1-79a21,21,0,0,1,19-12.09h91.66a21,21,0,0,1,0,42H730L671.53,770.6A21,21,0,0,1,652.51,782.69Z"/></g><g id="TEXT"><g id="_V_podigee" data-name="(V)podigee"><path class="cls-3" d="M268,1350.31c0-21.39-6.38-39.34-18.95-53.35-12.36-14.06-28.29-21.18-47.37-21.18-16,0-30.55,6.41-43.18,19l-2.56,2.56v-17.64H126v217.31h30v-95.76l2.57,2.6c12.82,13,27.54,19.62,43.75,19.62,18.8,0,34.59-7,46.93-20.74S268,1371.21,268,1350.31Zm-42.5,33.36a37.27,37.27,0,0,1-29.39,13.4c-12.51,0-22.74-4.46-30.43-13.26S154,1363.41,154,1349.72c0-14,3.93-25.46,11.66-34.11s18.07-13.09,30.57-13.09a37.6,37.6,0,0,1,29.55,13.55c7.63,8.84,11.5,20.41,11.5,34.38C237.32,1363.66,233.34,1374.84,225.51,1383.67Z"/><path class="cls-3" d="M411.8,1297.17c-14.48-14.19-32.36-21.39-53.14-21.39s-38.47,7.15-52.86,21.25-21.67,31.43-21.67,51.52c0,21.36,7.15,39.34,21.24,53.43,14.1,14.29,31.83,21.53,52.7,21.53,21.08,0,39.11-7.1,53.6-21.11s21.66-31.81,21.66-52.68C433.33,1329,426.09,1311.36,411.8,1297.17Zm-21.14,87c-8,8.58-18.74,12.93-32,12.93s-23.94-4.4-32-13.08c-7.85-8.55-11.83-20.27-11.83-34.86,0-13.61,4.08-24.89,12.12-33.54s18.75-13.07,31.72-13.07c13.16,0,23.93,4.4,32,13.07s12,20.09,12,34.28S398.61,1375.59,390.66,1384.14Z"/><path class="cls-3" d="M449.45,1349.13c0,21.31,6.34,39.31,18.82,53.51,12.52,13.84,28.51,20.87,47.51,20.87,15.92,0,30.4-6.26,43-18.61l2.55-2.49v17h30.1V1175h-30.1v123.51l-2.58-2.68c-12.83-13.3-27.55-20-43.75-20-18.7,0-34.43,7.08-46.77,21S449.45,1328.33,449.45,1349.13Zm42.34-33.2a38,38,0,0,1,29.55-13.41c12.41,0,22.64,4.46,30.42,13.25,7.74,8.94,11.66,20.41,11.66,34.1S559.5,1375,551.77,1384c-7.79,8.71-18.12,13.12-30.72,13.12a37.55,37.55,0,0,1-29.55-13.56c-7.54-8.83-11.35-20.4-11.35-34.38C480.15,1336,484.06,1324.86,491.79,1315.93Z"/><rect class="cls-3" x="621.08" y="1279.74" width="29.96" height="139.68"/><path class="cls-3" d="M622,1233.23a19.17,19.17,0,0,0,14.18,5.86,18.63,18.63,0,0,0,14-5.85,19.13,19.13,0,0,0,5.88-14.18,18.71,18.71,0,0,0-5.85-14,19.91,19.91,0,0,0-28.22,0,18.8,18.8,0,0,0-5.85,13.88A19.3,19.3,0,0,0,622,1233.23Z"/><path class="cls-3" d="M813.32,1448.57a123.21,123.21,0,0,0,1.8-13.36c.43-5.06.65-11,.65-17.67v-137.8h-30v18.55l-2.62-2.94c-11.56-13-26.27-19.57-43.7-19.57-19.94,0-36.21,7.6-48.35,22.59-11.34,14.2-17.1,31.73-17.1,52.08,0,20.92,6.19,38.57,18.38,52.48,12.05,13.66,27.73,20.58,46.63,20.58,16.59,0,31.46-6.6,44.19-19.61l2.57-2.63v23.6c0,30.44-12.68,45.88-37.68,45.88-13.51,0-24-4.68-31.07-13.91-2.89-3.76-5-9-6.35-15.68H680.52c2.16,17.39,9.31,31.22,21.25,41.15s27.47,15,46.07,15c22,0,39.51-7.32,52-21.75A59.19,59.19,0,0,0,813.32,1448.57Zm-36.63-65.82c-7.58,9.5-18,14.32-31.05,14.32s-23.38-4.78-30.77-14.2c-6.72-8.52-10.13-19.58-10.13-32.86,0-13.46,3.41-24.62,10.13-33.15,7.49-9.61,17.84-14.49,30.77-14.49,12.11,0,22.2,4.46,30,13.25,7.64,8.54,11.51,20.07,11.51,34.25C787.13,1363.15,783.62,1374.21,776.69,1382.75Z"/><path class="cls-3" d="M960.39,1401.37a108.37,108.37,0,0,0,12.66-17.25L947.79,1370c-6.51,10-12.43,17-17.62,20.89-5.62,4.08-12.77,6.15-21.26,6.15-10.91,0-20-3.6-27-10.7s-11-16.89-11.86-28.92l-.12-1.61H972.33l.12-6.29c0-23-6-41.25-17.77-54.19s-28.24-19.58-48.7-19.58c-20.26,0-36.75,6.79-49,20.17-12.18,13.6-18.36,31.7-18.36,53.77,0,22.25,6.37,40.34,18.94,53.76s29.41,20,50.17,20a85.13,85.13,0,0,0,20.3-2.3,60.59,60.59,0,0,0,17.29-7.21A71.45,71.45,0,0,0,960.39,1401.37ZM872.3,1330a40.08,40.08,0,0,1,4.88-11.41,35.19,35.19,0,0,1,7.73-8.64,34,34,0,0,1,10-5.52,35.82,35.82,0,0,1,11.77-1.91c18.27,0,29.94,9.25,34.71,27.49l.49,1.87h-70.1Z"/><path class="cls-3" d="M1111.36,1401.37a107.73,107.73,0,0,0,12.65-17.25L1098.76,1370c-6.51,10-12.44,17-17.63,20.89-5.62,4.08-12.76,6.15-21.25,6.15-10.92,0-20-3.6-27-10.7s-11-16.89-11.85-28.92l-.12-1.61H1123.3l.12-6.29c0-23-6-41.25-17.78-54.19s-28.23-19.58-48.69-19.58c-20.27,0-36.75,6.79-49,20.17-12.18,13.6-18.36,31.7-18.36,53.77,0,22.25,6.37,40.34,18.93,53.76s29.42,20,50.18,20a85.11,85.11,0,0,0,20.29-2.3,60.53,60.53,0,0,0,17.3-7.21A71.7,71.7,0,0,0,1111.36,1401.37ZM1023.27,1330a40.35,40.35,0,0,1,4.87-11.41,35.19,35.19,0,0,1,7.73-8.64,34.14,34.14,0,0,1,10-5.52,35.82,35.82,0,0,1,11.77-1.91c18.26,0,29.94,9.25,34.7,27.49l.5,1.87h-70.1Z"/></g></g></svg>